<svg version="1.2" xmlns="http://www.w3.org/2000/svg" viewBox="0 0 71 55" width="1024" height="793">
	<title>Discord-Logo-White-svg</title>
	<defs>
		<clipPath clipPathUnits="userSpaceOnUse" id="cp1">
			<path d="m1.16 3l21.84 0.13l-0.16 17.95l-21.84-0.13z" />
		</clipPath>
	</defs>
	<style>
		.s0 { fill: #ffffff } 
	</style>
	<g id="Clip-Path" clip-path="url(#cp1)">
		<g id="Layer">
			<path id="Layer" fill-rule="evenodd" class="s0" d="m19.7 4.7c2.4 3.9 3.6 8.2 3.1 13.2q0 0.1-0.1 0.1c-1.8 1.4-3.7 2.3-5.4 2.9q-0.1 0-0.1 0q-0.6-1-1.1-2q0 0 0-0.1q0.9-0.3 1.7-0.8c0.1 0 0.1-0.1 0-0.1q-0.1-0.2-0.3-0.3q0-0.1-0.1 0c-3.5 1.7-7.4 1.6-10.9-0.1q-0.1 0-0.1 0q-0.2 0.1-0.4 0.3c0 0 0 0.1 0.1 0.1q0.8 0.5 1.6 0.9q0.1 0 0.1 0.1q-0.5 1-1.1 1.9q-0.1 0-0.1 0c-1.8-0.6-3.6-1.5-5.5-2.9q0-0.1 0-0.1c-0.3-4.3 0.5-8.7 3.4-13.2q0 0 0 0q2.1-1 4.4-1.4q0.1 0 0.1 0c0.2 0.4 0.4 0.8 0.6 1.2q2.4-0.4 5 0.1c0.1-0.4 0.3-0.9 0.5-1.2q0.1-0.1 0.1-0.1q2.3 0.5 4.4 1.5q0.1 0 0.1 0zm-9.4 8.2c0-1.3-0.8-2.3-1.9-2.3c-1.1-0.1-2 1-2 2.3c0 1.3 0.9 2.3 1.9 2.3c1.1 0 2-1 2-2.3zm7.3 0c0-1.2-0.9-2.3-2-2.3c-1 0-1.9 1-1.9 2.3c0 1.3 0.8 2.4 1.9 2.4c1.1 0 2-1.1 2-2.4z" />
		</g>
	</g>
</svg>