<svg version="1.2" xmlns="http://www.w3.org/2000/svg" width="1200" height="700"><defs><linearGradient id="g1" x1="281.2" y1="173.8" x2="861.8" y2="173.8" gradientUnits="userSpaceOnUse"><stop offset="0" stop-color="#bcbeff"/><stop offset="1" stop-color="#5761d7"/></linearGradient><linearGradient id="g2" x1="442.1" y1="580.6" x2="281" y2="366.7" gradientUnits="userSpaceOnUse"><stop offset="0" stop-color="#42e8e0"/><stop offset="1" stop-color="#0f054c"/></linearGradient><linearGradient id="g4" x1="844.2" y1="454.1" x2="924.5" y2="500.5" gradientUnits="userSpaceOnUse"><stop offset="0" stop-color="#bcbeff"/><stop offset="1" stop-color="#5761d7"/></linearGradient><linearGradient id="g5" x1="817" y1="467.8" x2="917.6" y2="467.8" gradientUnits="userSpaceOnUse"><stop offset="0" stop-color="#e9e9fd"/><stop offset="1" stop-color="#c0bff6"/></linearGradient><linearGradient id="g6" x1="844.2" y1="394.1" x2="924.5" y2="440.4" gradientUnits="userSpaceOnUse"><stop offset="0" stop-color="#bcbeff"/><stop offset="1" stop-color="#5761d7"/></linearGradient><linearGradient id="g7" x1="817" y1="407.8" x2="917.6" y2="407.8" gradientUnits="userSpaceOnUse"><stop offset="0" stop-color="#e9e9fd"/><stop offset="1" stop-color="#c0bff6"/></linearGradient><linearGradient id="g8" x1="668.1" y1="507.5" x2="748.4" y2="553.8" gradientUnits="userSpaceOnUse"><stop offset="0" stop-color="#bcbeff"/><stop offset="1" stop-color="#5761d7"/></linearGradient><linearGradient id="g9" x1="640.9" y1="521.1" x2="741.5" y2="521.1" gradientUnits="userSpaceOnUse"><stop offset="0" stop-color="#e9e9fd"/><stop offset="1" stop-color="#c0bff6"/></linearGradient><linearGradient id="g10" x1="668.1" y1="443" x2="748.4" y2="489.4" gradientUnits="userSpaceOnUse"><stop offset="0" stop-color="#bcbeff"/><stop offset="1" stop-color="#5761d7"/></linearGradient><linearGradient id="g11" x1="640.9" y1="456.7" x2="741.5" y2="456.7" gradientUnits="userSpaceOnUse"><stop offset="0" stop-color="#e9e9fd"/><stop offset="1" stop-color="#c0bff6"/></linearGradient><linearGradient id="g12" x1="329.8" y1="189.5" x2="410.1" y2="235.8" gradientUnits="userSpaceOnUse"><stop offset="0" stop-color="#bcbeff"/><stop offset="1" stop-color="#5761d7"/></linearGradient><linearGradient id="g13" x1="302.6" y1="203.2" x2="403.2" y2="203.2" gradientUnits="userSpaceOnUse"><stop offset="0" stop-color="#e9e9fd"/><stop offset="1" stop-color="#c0bff6"/></linearGradient><linearGradient id="g14" x1="329.8" y1="130.9" x2="410.1" y2="177.3" gradientUnits="userSpaceOnUse"><stop offset="0" stop-color="#bcbeff"/><stop offset="1" stop-color="#5761d7"/></linearGradient><linearGradient id="g15" x1="331.4" y1="131.5" x2="404.2" y2="173.6" gradientUnits="userSpaceOnUse"><stop offset=".2" stop-color="#5761d7"/><stop offset="1" stop-color="#bcbeff"/></linearGradient><linearGradient id="g16" x1="302.6" y1="144.6" x2="403.2" y2="144.6" gradientUnits="userSpaceOnUse"><stop offset="0" stop-color="#e9e9fd"/><stop offset="1" stop-color="#c0bff6"/></linearGradient><linearGradient id="g17" x1="304" y1="145.5" x2="401.7" y2="145.5" gradientUnits="userSpaceOnUse"><stop offset="0" stop-color="#e9e9fd"/><stop offset="1" stop-color="#c0bff6"/></linearGradient><clipPath clipPathUnits="userSpaceOnUse" id="cp1"><path d="M471.24 476.16 293.68 373.61c-7.92-4.57-6.93-12.56 2.22-17.84l344.65-198.93c9.15-5.28 22.98-5.86 30.91-1.28L849.02 258.1c7.92 4.58 6.93 12.57-2.22 17.85L502.15 474.88c-9.15 5.28-22.98 5.85-30.91 1.28z"/></clipPath><clipPath clipPathUnits="userSpaceOnUse" id="cp2"><path d="m612.78 332.11-21.98 12.67-87.53-50.54v-97.19l109.51 63.23z"/></clipPath><radialGradient id="g3" cx="557.2" cy="321.3" r="450.3" gradientUnits="userSpaceOnUse"><stop offset="0" stop-color="#42e8e0"/><stop offset="1" stop-color="#0f054c"/></radialGradient></defs><style>.s2{fill:#fff}.s6{fill:#9ffff8}.s7{fill:#42e8e0}.s8{opacity:.4;fill:#24126a}.s10{opacity:.3}.s10,.s12{fill:#0f054c}.s13{opacity:.4;fill:#42e8e0}</style><g id="\321\353\356\351 1"><path id="&lt;Path&gt;" d="M861.8 287.2c-.1 3.6-2.7 7.3-7.8 10.3L502.8 500.2c-9.4 5.5-23.7 6.1-31.9 1.3L286.8 395.2c-3.8-2.1-5.6-5-5.6-8v-16.6l46.8-8 312.2-180.3c9.5-5.5 23.8-6.1 32-1.3l163.2 94.2 26.4-4.6z" style="fill:url(#g1)"/><path d="M470.9 484.9 286.8 378.6c-8.2-4.8-7.2-13 2.2-18.5l351.2-202.7c9.5-5.5 23.8-6.1 32-1.4l184.1 106.3c8.2 4.8 7.1 13-2.3 18.5L502.8 483.5c-9.4 5.5-23.7 6.1-31.9 1.4z" style="fill:#24126a"/><path class="s2" d="M861.7 271.5c.6 3.9-2.1 8.2-7.7 11.4L502.8 485.7c-9.4 5.4-23.7 6-31.9 1.3L286.8 380.7c-4.2-2.4-6-5.7-5.5-9.1.4 2.6 2.2 5.1 5.5 7l184.1 106.3c8.2 4.7 22.5 4.1 31.9-1.4L854 280.8c4.6-2.7 7.2-6 7.7-9.3z"/><path d="M471.2 480.7 293.7 378.2c-7.9-4.6-6.9-12.6 2.2-17.9l344.6-198.9c9.2-5.3 23-5.8 31-1.3L849 262.7c7.9 4.6 6.9 12.5-2.2 17.8l-344.6 199c-9.2 5.2-23 5.8-31 1.2z" style="opacity:.5;fill:#453c9e"/><path id="&lt;Compound Path&gt;" fill-rule="evenodd" d="M484.7 479.8c-5.2 0-10.1-1-13.7-3.1L293.4 374.1c-3.6-2.1-5.6-5-5.6-8.2 0-3.9 2.8-7.7 7.8-10.6l344.7-199c9.3-5.3 23.4-5.9 31.4-1.2l177.6 102.5c3.6 2.1 5.6 5 5.6 8.3 0 3.8-2.8 7.7-7.8 10.5l-344.7 199c-5 2.9-11.6 4.4-17.7 4.4zm-13.2-4.1c7.8 4.4 21.4 3.9 30.4-1.3l344.6-198.9c4.6-2.7 7.3-6.2 7.3-9.6 0-2.8-1.8-5.4-5.1-7.3L671.2 156.1c-7.8-4.5-21.4-3.9-30.4 1.2l-344.6 199c-4.6 2.6-7.3 6.1-7.3 9.6 0 2.8 1.8 5.3 5.1 7.2z" style="opacity:.8;fill:url(#g2)"/><path d="M471.2 476.2 293.7 373.6c-7.9-4.6-6.9-12.5 2.2-17.8l344.6-199c9.2-5.2 23-5.8 31-1.2L849 258.1c7.9 4.6 6.9 12.6-2.2 17.8l-344.6 199c-9.2 5.3-23 5.8-31 1.3z" style="opacity:.5;fill:url(#g3)"/><g id="&lt;Clip Group&gt;" clip-path="url(#cp1)" style="opacity:.1"><path class="s6" d="m657.4 460.1-.2.2h-.1l-6.7 3.9.1-1.7c-5.3.6-11.5-.8-18.1-4.7-19.3-11.1-35-38.2-35-60.5 0-8 2.1-14.3 5.5-18.6l-1.9-.2 6.6-3.8c6.4-3.7 15.1-3.2 24.8 2.4 19.3 11.1 35 38.3 35 60.6 0 10.9-3.8 18.7-10 22.4z"/><path class="s7" d="M660.7 441.6c0 22.3-15.7 31.3-35 20.2-19.3-11.2-35-38.3-35-60.6 0-22.3 15.7-31.4 35-20.2 19.3 11.1 35 38.3 35 60.6z"/></g><path class="s8" d="M811.1 275.1c-2.7 1.6-7.1 1.6-9.8 0-2.7-1.5-2.7-4.1 0-5.6 2.7-1.6 7.1-1.6 9.8 0 2.7 1.5 2.7 4.1 0 5.6zM773.6 247.8l19.2 11.1c2.4 1.4 2.1 3.7-.6 5.3-2.7 1.6-6.8 1.7-9.2.4l-19.2-11.1c-2.3-1.4-2-3.7.7-5.3 2.7-1.6 6.8-1.7 9.1-.4zM664 181.3l19.2 11.1c2.4 1.3 2.1 3.7-.6 5.3-2.7 1.5-6.8 1.7-9.2.4L654.2 187c-2.3-1.4-2-3.8.7-5.3 2.7-1.6 6.8-1.8 9.1-.4z"/><path class="s7" d="M811.1 268.2c-2.7 1.6-7.1 1.6-9.8 0-2.7-1.5-2.7-4.1 0-5.6 2.7-1.6 7.1-1.6 9.8 0 2.7 1.5 2.7 4.1 0 5.6zM773.6 240.9l19.2 11.1c2.4 1.4 2.1 3.8-.6 5.3-2.7 1.6-6.8 1.8-9.2.4l-19.2-11.1c-2.3-1.3-2-3.7.7-5.3 2.7-1.5 6.8-1.7 9.1-.4zM664 174.4l19.2 11.1c2.4 1.4 2.1 3.7-.6 5.3-2.7 1.6-6.8 1.7-9.2.4l-19.2-11.1c-2.3-1.4-2-3.7.7-5.3 2.7-1.6 6.8-1.7 9.1-.4z"/><g style="opacity:.3"><path d="M918.8 510.4v.2c-.1 1.8-1.2 3.5-3.5 4.8l-39.6 22.8c-4.6 2.7-12.1 2.7-16.8 0l-39.5-22.8c-2.3-1.3-3.5-3.1-3.5-4.9v-9.1l1.6-.5 2.6-1.6c1.9 3.3 3.7 6.9 7.1 8.5l-1 .5 39.5 20.4 12.4-4.5 28.3-16.5c4.2-.6 9.2-3.4 9.9-7.6l2.5 1.3v9z" style="fill:url(#g4)"/><path class="s10" d="M916.3 500.2h.2l2.3 1.2v9.2c-.1 1.8-1.2 3.5-3.5 4.8l-39.6 22.8c-2.3 1.4-5.3 2-8.4 2v-12.1l10.8-3.9 28.3-16.5c4.2-.6 9.1-3.4 9.9-7.5z"/><path d="m858.9 529.1-39.5-22.8c-4.7-2.7-4.7-7 0-9.7l39.5-22.9c4.7-2.6 12.2-2.6 16.8 0l39.6 22.9c4.6 2.7 4.6 7 0 9.7l-39.6 22.8c-4.6 2.7-12.1 2.7-16.8 0z" style="fill:url(#g5)"/><path class="s12" d="m858.9 529.1-39.5-22.8c-4.7-2.7-4.7-7 0-9.7l39.5-22.9c4.7-2.6 12.2-2.6 16.8 0l39.6 22.9c4.6 2.7 4.6 7 0 9.7l-39.6 22.8c-4.6 2.7-12.1 2.7-16.8 0z" style="opacity:.3"/></g><path fill-rule="evenodd" class="s7" d="M867.3 500.3c-2.7 0-5.4-.6-7.4-1.8l-39.6-22.9c-2-1.1-3.2-2.7-3.2-4.5 0-1.7 1.2-3.3 3.2-4.5l39.6-22.8c4.1-2.4 10.8-2.4 14.9 0l39.6 22.8c2 1.2 3.1 2.8 3.1 4.5 0 1.8-1.1 3.4-3.1 4.5l-39.6 22.9a15.4 15.4 0 0 1-7.5 1.8zm0-57.6c-2.5 0-5.1.6-7.1 1.7l-39.5 22.8c-1.9 1.1-2.9 2.5-2.9 3.9 0 1.5 1 2.9 2.9 3.9l39.5 22.9c3.9 2.2 10.3 2.2 14.2 0L914 475c1.8-1 2.8-2.4 2.8-3.9 0-1.4-1-2.8-2.8-3.9l-39.6-22.8c-1.9-1.1-4.5-1.7-7.1-1.7z"/><path class="s13" d="M918.8 462.4v.2c-.1 1.7-1.2 3.4-3.5 4.8l-39.6 22.8c-4.6 2.7-12.1 2.7-16.8 0l-39.5-22.8c-2.3-1.4-3.5-3.1-3.5-4.9v-13.8l1.6-.4 2.6-1.6c1.9 3.3 3.7 6.9 7.1 8.5l-1 .5 39.5 20.4 12.4-4.5 28.3-16.6c4.2-.5 9.2-3.3 9.9-7.6l2.5 1.4v13.6z"/><path d="M918.8 450.3v.3c-.1 1.7-1.2 3.4-3.5 4.7l-39.6 22.9c-4.6 2.6-12.1 2.6-16.8 0l-39.5-22.9c-2.3-1.3-3.5-3.1-3.5-4.8v-9.2l1.6-.5 2.6-1.6c1.9 3.3 3.7 6.9 7.1 8.5l-1 .5 39.5 20.4 12.4-4.4 28.3-16.6c4.2-.6 9.2-3.4 9.9-7.6l2.5 1.4v8.9z" style="fill:url(#g6)"/><path class="s10" d="M916.3 440.1h.2l2.3 1.3V450.6c-.1 1.7-1.2 3.4-3.5 4.7l-39.6 22.9c-2.3 1.3-5.3 2-8.4 2V468l10.8-3.8 28.3-16.6c4.2-.6 9.1-3.3 9.9-7.5z"/><path d="m858.9 469.1-39.5-22.9c-4.7-2.7-4.7-7 0-9.7l39.5-22.8c4.7-2.7 12.2-2.7 16.8 0l39.6 22.8c4.6 2.7 4.6 7 0 9.7l-39.6 22.9c-4.6 2.6-12.1 2.6-16.8 0z" style="fill:url(#g7)"/><path class="s2" d="M918.7 441.9c.3 2-.8 3.9-3.4 5.4l-39.6 22.9c-4.6 2.6-12.1 2.6-16.8 0l-39.5-22.9c-2.6-1.5-3.7-3.4-3.5-5.4.3 1.6 1.4 3.1 3.5 4.3l39.5 22.9c4.7 2.6 12.2 2.6 16.8 0l39.6-22.9c2.1-1.2 3.2-2.7 3.4-4.3z"/><g style="opacity:.3"><path d="M742.6 563.7v.2c0 1.8-1.2 3.5-3.4 4.8l-39.6 22.8c-4.6 2.7-12.2 2.7-16.8 0l-39.6-22.8c-2.3-1.3-3.4-3.1-3.4-4.9v-9.1l1.5-.5 2.7-1.6c1.8 3.3 3.6 6.9 7 8.5l-.9.5 39.5 20.4 12.4-4.5 28.3-16.5c4.2-.6 9.2-3.4 9.9-7.6l2.4 1.3v9z" style="fill:url(#g8)"/><path class="s10" d="M740.1 553.5h.3l2.2 1.2v9.2c0 1.8-1.2 3.5-3.4 4.8l-39.6 22.8c-2.3 1.4-5.4 2-8.4 2v-12.1l10.8-3.9 28.3-16.5c4.1-.6 9.1-3.4 9.8-7.5z"/><path d="m682.8 582.4-39.6-22.8c-4.6-2.7-4.6-7 0-9.7l39.6-22.8c4.6-2.7 12.2-2.7 16.8 0l39.6 22.8c4.6 2.7 4.6 7 0 9.7l-39.6 22.8c-4.6 2.7-12.2 2.7-16.8 0z" style="fill:url(#g9)"/><path class="s12" d="m682.8 582.4-39.6-22.8c-4.6-2.7-4.6-7 0-9.7l39.6-22.8c4.6-2.7 12.2-2.7 16.8 0l39.6 22.8c4.6 2.7 4.6 7 0 9.7l-39.6 22.8c-4.6 2.7-12.2 2.7-16.8 0z" style="opacity:.3"/></g><path fill-rule="evenodd" class="s7" d="M691.2 549.2c-2.7 0-5.4-.6-7.5-1.8l-39.5-22.8c-2.1-1.2-3.2-2.8-3.2-4.5 0-1.7 1.1-3.3 3.2-4.5l39.5-22.9c4.2-2.3 10.8-2.3 15 0l39.5 22.9c2.1 1.2 3.2 2.8 3.2 4.5 0 1.7-1.1 3.3-3.2 4.5l-39.5 22.8a15.4 15.4 0 0 1-7.5 1.8zm-7.1-2.4c3.9 2.3 10.3 2.3 14.2 0l39.6-22.8c1.8-1.1 2.8-2.5 2.8-3.9 0-1.5-1-2.9-2.8-3.9l-39.6-22.9c-3.9-2.2-10.3-2.2-14.2 0l-39.6 22.9c-1.8 1-2.8 2.4-2.8 3.9 0 1.4 1 2.8 2.8 3.9z"/><path class="s13" d="M742.6 511.3v.2c0 1.8-1.2 3.5-3.4 4.8l-39.6 22.8c-4.6 2.7-12.2 2.7-16.8 0l-39.6-22.8c-2.3-1.3-3.4-3.1-3.4-4.8v-13.8l1.5-.5 2.7-1.6c1.8 3.3 3.6 6.9 7 8.5l-.9.5 39.5 20.4 12.4-4.4 28.3-16.6c4.2-.6 9.2-3.4 9.9-7.6l2.4 1.4v13.5z"/><path d="M742.6 499.3v.2c0 1.7-1.2 3.4-3.4 4.8l-39.6 22.8c-4.6 2.7-12.2 2.7-16.8 0l-39.6-22.8c-2.3-1.4-3.4-3.1-3.4-4.9v-9.2l1.5-.4 2.7-1.6c1.8 3.3 3.6 6.9 7 8.5l-.9.5 39.5 20.4 12.4-4.5 28.3-16.6c4.2-.6 9.2-3.3 9.9-7.6l2.4 1.4v9z" style="fill:url(#g10)"/><path class="s10" d="M740.1 489h.3l2.2 1.3v9.2c0 1.7-1.2 3.4-3.4 4.8l-39.6 22.8c-2.3 1.3-5.4 2-8.4 2V517l10.8-3.9 28.3-16.6c4.1-.5 9.1-3.3 9.8-7.5z"/><path d="m682.8 518-39.6-22.8c-4.6-2.7-4.6-7.1 0-9.7l39.6-22.9c4.6-2.7 12.2-2.7 16.8 0l39.6 22.9c4.6 2.6 4.6 7 0 9.7L699.6 518c-4.6 2.7-12.2 2.7-16.8 0z" style="fill:url(#g11)"/><path fill-rule="evenodd" d="M691.2 513.8c-2.4 0-4.9-.5-6.7-1.6l-30.9-17.8c-1.9-1.1-2.9-2.5-2.9-4.1 0-1.6 1-3 2.9-4.1l30.9-17.8c3.7-2.2 9.7-2.2 13.4 0l30.9 17.8c1.9 1.1 2.9 2.5 2.9 4.1 0 1.6-1 3-2.9 4.1l-30.9 17.8c-1.8 1.1-4.3 1.6-6.7 1.6zm-6.4-2.2c3.5 2.1 9.3 2.1 12.8 0l30.9-17.8c1.6-1 2.5-2.2 2.5-3.5 0-1.3-.9-2.5-2.5-3.5L697.6 469c-3.5-2.1-9.3-2.1-12.8 0l-30.9 17.8c-1.6 1-2.5 2.2-2.5 3.5 0 1.3.9 2.5 2.5 3.5z" style="fill:#5351af"/><path class="s2" d="M742.6 490.9c.3 1.9-.9 3.9-3.4 5.4l-39.6 22.8c-4.6 2.7-12.2 2.7-16.8 0l-39.6-22.8c-2.5-1.5-3.7-3.5-3.4-5.4.2 1.5 1.4 3.1 3.4 4.3l39.6 22.8c4.6 2.7 12.2 2.7 16.8 0l39.6-22.8c2-1.2 3.2-2.8 3.4-4.3z"/><g style="opacity:.3"><path d="M404.3 245.7v.3c0 1.7-1.2 3.4-3.5 4.7l-39.5 22.9c-4.7 2.6-12.2 2.6-16.8 0l-39.6-22.9c-2.3-1.3-3.5-3.1-3.5-4.8v-9.2l1.6-.5 2.7-1.5c1.8 3.2 3.6 6.9 7 8.4l-.9.6 39.5 20.3 12.3-4.4L392 243c4.1-.6 9.1-3.4 9.8-7.6l2.5 1.4v8.9z" style="fill:url(#g12)"/><path class="s10" d="M401.8 235.5h.2l2.3 1.3V246c0 1.7-1.2 3.4-3.5 4.7l-39.5 22.9c-2.4 1.3-5.4 2-8.4 2v-12.1l10.7-3.9L392 243c4.1-.6 9-3.3 9.8-7.5z"/><path d="m344.5 264.5-39.6-22.9c-4.6-2.7-4.6-7 0-9.7l39.6-22.8c4.6-2.7 12.1-2.7 16.8 0l39.5 22.8c4.7 2.7 4.7 7 0 9.7l-39.5 22.9c-4.7 2.6-12.2 2.6-16.8 0z" style="fill:url(#g13)"/><path class="s12" d="m344.5 264.5-39.6-22.9c-4.6-2.7-4.6-7 0-9.7l39.6-22.8c4.6-2.7 12.1-2.7 16.8 0l39.5 22.8c4.7 2.7 4.7 7 0 9.7l-39.5 22.9c-4.7 2.6-12.2 2.6-16.8 0z" style="opacity:.3"/></g><g><path fill-rule="evenodd" class="s7" d="M352.9 237.1c-2.7 0-5.4-.6-7.5-1.8l-39.6-22.8c-2-1.2-3.1-2.8-3.1-4.5 0-1.7 1.1-3.4 3.1-4.5l39.6-22.9c4.1-2.3 10.8-2.3 14.9 0l39.6 22.9c2 1.1 3.2 2.8 3.2 4.5 0 1.7-1.2 3.3-3.2 4.5l-39.6 22.8c-2 1.2-4.7 1.8-7.4 1.8zm0-57.6c-2.6 0-5.2.6-7.1 1.7l-39.6 22.9c-1.8 1-2.8 2.4-2.8 3.9 0 1.4 1 2.8 2.8 3.9l39.6 22.8c3.9 2.3 10.3 2.3 14.2 0l39.5-22.8c1.9-1.1 2.9-2.5 2.9-3.9 0-1.5-1-2.9-2.9-3.9L360 181.2c-2-1.1-4.6-1.7-7.1-1.7z"/><path class="s13" d="M404.3 199.2v.2c0 1.8-1.2 3.5-3.5 4.8L361.3 227c-4.7 2.7-12.2 2.7-16.8 0l-39.6-22.8c-2.3-1.3-3.5-3.1-3.5-4.9v-13.7l1.6-.5 2.7-1.6c1.8 3.3 3.6 6.9 7 8.5l-.9.5 39.5 20.4 12.3-4.4 28.4-16.6c4.1-.6 9.1-3.4 9.8-7.6l2.5 1.4v13.5z"/><path d="M404.3 187.2v.2c0 1.7-1.2 3.4-3.5 4.8L361.3 215c-4.7 2.7-12.2 2.7-16.8 0l-39.6-22.8c-2.3-1.4-3.5-3.1-3.5-4.9v-9.2l1.6-.4 2.7-1.6c1.8 3.3 3.6 6.9 7 8.5l-.9.5 39.5 20.4 12.3-4.5 28.4-16.6c4.1-.6 9.1-3.4 9.8-7.6l2.5 1.4v9z" style="fill:url(#g14)"/><path class="s10" d="M401.8 176.9h.2l2.3 1.3v9.2c0 1.7-1.2 3.4-3.5 4.8L361.3 215c-2.4 1.3-5.4 2-8.4 2v-12.1l10.7-3.9 28.4-16.6c4.1-.6 9-3.3 9.8-7.5z"/><path d="m305.7 176.1 33-19.7 9.8-5.8 12 3.2 41.3 23c-.7 4.2-5.7 7-9.8 7.6l.4-.2-36.8-21.3c-1.5-.8-3.9-.8-5.4 0l-37.5 21.7c-3.4-1.6-5.2-5.2-7-8.5z" style="fill:url(#g15)"/><path class="s10" d="M352.9 162.3c-1 0-2 .2-2.7.6l-37.5 21.7c-3.4-1.6-5.2-5.2-7-8.5l33-19.7 9.8-5.8 4.4 1.2z"/><path fill-rule="evenodd" d="M344.5 205.9 304.9 183c-4.6-2.6-4.6-7 0-9.7l39.6-22.8c4.6-2.7 12.1-2.7 16.8 0l39.5 22.8c4.7 2.7 4.7 7.1 0 9.7l-39.5 22.9c-4.7 2.7-12.2 2.7-16.8 0zm11.1-52.1c-1.5-.9-3.9-.9-5.4 0l-39.6 22.8c-1.5.9-1.5 2.3 0 3.2l39.6 22.8c1.5.8 3.9.8 5.4 0l39.5-22.8c1.5-.9 1.5-2.3 0-3.2z" style="fill:url(#g16)"/><path class="s2" d="M396.1 178.8q-.2-.6-1-1l-39.5-22.9c-1.5-.8-3.9-.8-5.4 0l-39.6 22.9q-.7.4-1 1c-.3-.8 0-1.6 1-2.2l39.6-22.8c1.5-.9 3.9-.9 5.4 0l39.5 22.8c1 .6 1.3 1.4 1 2.2z"/><path class="s2" d="M404.3 178.8c.2 1.9-.9 3.9-3.5 5.4L361.3 207c-4.7 2.7-12.2 2.7-16.8 0l-39.6-22.8c-2.6-1.5-3.7-3.5-3.4-5.4.2 1.5 1.3 3.1 3.4 4.2l39.6 22.9c4.6 2.7 12.1 2.7 16.8 0l39.5-22.9c2.1-1.1 3.2-2.7 3.5-4.2z"/><g><path fill-rule="evenodd" d="M345.6 205.2 306 182.4c-4-2.3-4-6.1 0-8.4l39.6-22.8c4-2.4 10.5-2.4 14.5 0l39.6 22.8c4 2.3 4 6.1 0 8.4l-39.6 22.8c-4 2.4-10.5 2.4-14.5 0zm11.1-52a7.9 7.9 0 0 0-7.6 0L309.5 176c-2.1 1.2-2.1 3.2 0 4.4l39.6 22.8c2.1 1.2 5.5 1.2 7.6 0l39.5-22.8c2.1-1.2 2.1-3.2 0-4.4z" style="fill:url(#g17)"/></g><path class="s13" d="M395.1 176.6c1.5.9 1.5 2.3 0 3.2l-39.5 22.8c-1.5.8-3.9.8-5.4 0l-39.6-22.8c-1.5-.9-1.5-2.3 0-3.2l39.6-22.8c1.5-.9 3.9-.9 5.4 0z"/></g><g><path class="s6" d="m657.4 313-.2.1-.1.1-6.7 3.9.1-1.8c-5.3.7-11.5-.8-18.1-4.6-19.3-11.1-35-38.3-35-60.6 0-8 2.1-14.3 5.5-18.5l-1.9-.2 6.6-3.9c6.4-3.7 15.1-3.1 24.8 2.5 19.3 11.1 35 38.2 35 60.5 0 11-3.8 18.7-10 22.5z"/><path class="s7" d="M660.7 294.4c0 22.3-15.7 31.4-35 20.2-19.3-11.1-35-38.2-35-60.5 0-22.3 15.7-31.4 35-20.2 19.3 11.1 35 38.2 35 60.5z"/></g><g><path class="s6" d="M564.5 206.6v.1l-.3-.1h-.1l-7.7-.7 1.1-1.3c-4.6-2.6-8.9-7.4-12-14.3-9.3-20.3-6.3-51.5 6.7-69.6 4.6-6.6 9.9-10.5 15.2-12l-1.4-1.2 7.6.7c7.3.6 14.1 6.1 18.8 16.3 9.2 20.3 6.2 51.5-6.7 69.6-6.4 9-14 13.1-21.2 12.5z"/><path class="s7" d="M578 193.4c-13 18.2-31 16.5-40.2-3.8-9.3-20.3-6.3-51.5 6.6-69.6 13-18.2 31-16.5 40.2 3.8 9.3 20.3 6.3 51.5-6.6 69.6z"/></g><g style="opacity:.1"><path class="s6" d="m587.5 363.4-.3.2h-.1l-6.7 3.9.2-1.7c-5.3.6-11.5-.8-18.1-4.7-19.4-11.1-35-38.2-35-60.5 0-8 2-14.3 5.5-18.6l-1.9-.2 6.6-3.8c6.3-3.7 15.1-3.2 24.8 2.4 19.3 11.1 34.9 38.3 34.9 60.6 0 10.9-3.8 18.7-9.9 22.4z"/><path class="s7" d="M590.7 344.9c0 22.3-15.6 31.3-34.9 20.2-19.3-11.2-35-38.3-35-60.6 0-22.3 15.7-31.4 35-20.2 19.3 11.1 34.9 38.3 34.9 60.6z"/></g><path fill-rule="evenodd" class="s13" d="M558 377.3c-24.1 0-48.2-5.3-66.6-15.9-17.9-10.3-27.7-24-27.7-38.6 0-14.6 9.8-28.4 27.7-38.7 36.7-21.2 96.5-21.2 133.2 0 17.9 10.3 27.7 24.1 27.7 38.7 0 14.6-9.8 28.3-27.7 38.6-18.3 10.6-42.4 15.9-66.6 15.9zm0-108.4c-24 0-48 5.3-66.2 15.8-17.7 10.2-27.4 23.7-27.4 38.1 0 14.3 9.7 27.9 27.4 38 36.5 21.1 96 21.1 132.5 0 17.6-10.1 27.3-23.7 27.3-38 0-14.4-9.7-27.9-27.3-38.1-18.3-10.5-42.3-15.8-66.3-15.8z"/><path fill-rule="evenodd" d="M558 392c-30.6 0-61.2-6.8-84.5-20.2-22.7-13.1-35.1-30.5-35.1-49 0-18.6 12.4-36 35.1-49 46.6-26.9 122.4-26.9 169.1 0 22.6 13 35.1 30.4 35.1 49 0 18.5-12.5 35.9-35.1 49-23.3 13.4-54 20.2-84.6 20.2zm0-137.7c-30.5 0-61 6.7-84.2 20.1-22.4 12.9-34.7 30.1-34.7 48.4 0 18.2 12.3 35.4 34.7 48.4 46.5 26.8 122 26.8 168.4 0 22.4-13 34.8-30.2 34.8-48.4 0-18.3-12.4-35.5-34.8-48.4-23.2-13.4-53.7-20.1-84.2-20.1z" style="opacity:.2;fill:#42e8e0"/><path fill-rule="evenodd" class="s7" d="M558 365.8c-19 0-38-4.2-52.5-12.5-14.1-8.1-21.8-19-21.8-30.5 0-11.6 7.7-22.4 21.8-30.5 29-16.7 76.1-16.7 105 0 14.1 8.1 21.9 18.9 21.9 30.5 0 11.5-7.8 22.4-21.9 30.5-14.4 8.3-33.5 12.5-52.5 12.5zm0-85.4c-18.9 0-37.8 4.2-52.1 12.5-13.9 8-21.5 18.6-21.5 29.9 0 11.3 7.6 21.9 21.5 29.9 28.7 16.6 75.5 16.6 104.3 0 13.8-8 21.5-18.6 21.5-29.9 0-11.3-7.7-21.9-21.5-29.9-14.4-8.3-33.3-12.5-52.2-12.5z"/><g clip-path="url(#cp2)"><path class="s6" d="m587.5 363.4-.3.2h-.1l-6.7 3.9.2-1.7c-5.3.6-11.5-.8-18.1-4.7-19.4-11.1-35-38.2-35-60.5 0-8 2-14.3 5.5-18.6l-1.9-.2 6.6-3.8c6.3-3.7 15.1-3.2 24.8 2.4 19.3 11.1 34.9 38.3 34.9 60.6 0 10.9-3.8 18.7-9.9 22.4z"/><path class="s7" d="M590.7 344.9c0 22.3-15.6 31.3-34.9 20.2-19.3-11.2-35-38.3-35-60.6 0-22.3 15.7-31.4 35-20.2 19.3 11.1 34.9 38.3 34.9 60.6z"/></g><g><path class="s8" d="M464.1 437.4 354.3 374a4.8 4.8 0 0 1 0-8.4l16.7-9.8c5.6-3.2 12.5-3.2 18.1 0L499 419.3c3.2 1.8 3.2 6.5 0 8.4l-16.8 9.7c-5.6 3.3-12.5 3.3-18.1 0z"/><path class="s7" d="m409.1 372.6-17.6-10.1 3.5-2.1 17.6 10.2zM458.7 401.9l-5.4-3.1 3.5-2 5.4 3.1zM419.3 378.7l-5.4-3.2 3.5-2 5.4 3.1z"/><path fill-rule="evenodd" class="s7" d="M473.2 424.8c-3.2 0-6.4-.8-9.3-2.5l-109.8-63.4c-1.7-.9-2.7-2.6-2.7-4.5s1-3.6 2.7-4.6l16.7-9.8c5.7-3.3 12.8-3.3 18.5 0l109.9 63.5c1.6.9 2.6 2.6 2.6 4.5s-1 3.6-2.6 4.6l-16.8 9.7c-2.8 1.7-6 2.5-9.2 2.5zm-93.1-86.4c-3.1 0-6.1.8-8.9 2.3l-16.7 9.8c-1.4.8-2.3 2.3-2.3 3.9s.9 3 2.3 3.8l109.8 63.4c5.5 3.2 12.3 3.2 17.7 0l16.8-9.7a4.57 4.57 0 0 0 0-7.8l-109.9-63.4c-2.7-1.5-5.7-2.3-8.8-2.3z"/></g></g></svg>