<svg version="1.2" xmlns="http://www.w3.org/2000/svg" width="1600" height="900"><defs><linearGradient id="a" x1="1406.1" y1="592.1" x2="1406.1" y2="520.2" gradientUnits="userSpaceOnUse"><stop offset="0" stop-color="#0ff"/><stop offset="1" stop-color="#cbb2ff"/></linearGradient><linearGradient id="b" x1="468.7" y1="136.4" x2="468.7" y2="56.1" gradientUnits="userSpaceOnUse"><stop offset="0" stop-color="#0ff"/><stop offset="1" stop-color="#cbb2ff"/></linearGradient><linearGradient id="c" x1="331.7" y1="714.8" x2="331.7" y2="655.7" gradientUnits="userSpaceOnUse"><stop offset="0" stop-color="#0ff"/><stop offset="1" stop-color="#cbb2ff"/></linearGradient><linearGradient id="d" x1="331.7" y1="714.8" x2="331.7" y2="655.7" gradientUnits="userSpaceOnUse"><stop offset="0" stop-color="#0ff"/><stop offset="1" stop-color="#cbb2ff"/></linearGradient><linearGradient id="e" x1="164.9" y1="339.2" x2="164.9" y2="427.7" gradientUnits="userSpaceOnUse"><stop offset="0" stop-color="#8f67ff"/><stop offset="1" stop-color="#5ef2ff"/></linearGradient><linearGradient id="f" x1="989.1" y1="671.1" x2="989.1" y2="806.9" gradientUnits="userSpaceOnUse"><stop offset="0" stop-color="#8f67ff"/><stop offset="1" stop-color="#5ef2ff"/></linearGradient><linearGradient id="g" x1="552.8" y1="282.9" x2="552.8" y2="398.5" gradientUnits="userSpaceOnUse"><stop offset="0" stop-color="#8f67ff"/><stop offset="1" stop-color="#5ef2ff"/></linearGradient><linearGradient id="h" x1="1294.9" y1="109.1" x2="1294.9" y2="185.1" gradientUnits="userSpaceOnUse"><stop offset="0" stop-color="#8f67ff"/><stop offset="1" stop-color="#5ef2ff"/></linearGradient><linearGradient id="i" x1="75.8" y1="702.1" x2="75.8" y2="818.1" gradientUnits="userSpaceOnUse"><stop offset="0" stop-color="#8f67ff"/><stop offset="1" stop-color="#5ef2ff"/></linearGradient></defs><path d="m1406.1 589.2 44.1-69 37.5 71.9z" style="fill:#101535;stroke:url(#a);stroke-width:12.3"/><path d="M507.2 136.4c-22.2-1-39.4-19.7-38.4-41.9.9-22.1 19.6-39.3 41.8-38.4 22.2.9 39.4 19.6 38.4 41.8-.9 22.2-19.6 39.4-41.8 38.5z" style="fill:#101535;stroke:url(#b);stroke-width:4.1"/><path d="m408.5 714.8-76.8-34.2c9.5-21.2 34.3-30.7 55.5-21.3 21.3 9.5 30.8 34.3 21.3 55.5z" style="fill:#101535;stroke:url(#c);stroke-width:12.3"/><path d="m408.5 714.8-76.8-34.2c9.5-21.2 34.3-30.7 55.5-21.3 21.3 9.5 30.8 34.3 21.3 55.5z" style="fill:#101535;stroke:url(#d);stroke-width:12.3"/><g><path d="m227.2 383.9-31.8 43.8-30.5-44.7 31.7-43.8z" style="fill:#101535;stroke:url(#e);stroke-width:3.7"/><path d="m1037.3 671.1 87.6 48.2-48.2 87.6-87.6-48.2z" style="fill:#101535;stroke:url(#f);stroke-width:8.1"/><path d="m621.4 282.9 47.4 68.6-68.7 47-47.3-68.6z" style="fill:#101535;stroke:url(#g);stroke-width:8.1"/><path d="m1378.7 150.6-24.1 34.5-41.9-3.5-17.8-38 23.9-34.5 41.9 3.5z" style="fill:#101535;stroke:url(#h);stroke-width:3.7"/><path d="M194 750.9 173.1 809l-59.1 9.1-38.2-48.9 20.9-58 59-9.1z" style="fill:#101535;stroke:url(#i);stroke-width:3.7"/></g></svg>