<svg version="1.2" xmlns="http://www.w3.org/2000/svg" width="1600" height="900"><defs><linearGradient id="a" x1="1406.1" y1="592.1" x2="1406.1" y2="520.2" gradientUnits="userSpaceOnUse"><stop offset="0" stop-color="#0ff"/><stop offset="1" stop-color="#cbb2ff"/></linearGradient><linearGradient id="b" x1="391.2" y1="545.8" x2="391.2" y2="439.8" gradientUnits="userSpaceOnUse"><stop offset="0" stop-color="#0ff"/><stop offset="1" stop-color="#cbb2ff"/></linearGradient><linearGradient id="c" x1="468.7" y1="136.4" x2="468.7" y2="56.1" gradientUnits="userSpaceOnUse"><stop offset="0" stop-color="#0ff"/><stop offset="1" stop-color="#cbb2ff"/></linearGradient><linearGradient id="d" x1="973" y1="430.9" x2="973" y2="311" gradientUnits="userSpaceOnUse"><stop offset="0" stop-color="#0ff"/><stop offset="1" stop-color="#cbb2ff"/></linearGradient><linearGradient id="e" x1="331.7" y1="714.8" x2="331.7" y2="655.7" gradientUnits="userSpaceOnUse"><stop offset="0" stop-color="#0ff"/><stop offset="1" stop-color="#cbb2ff"/></linearGradient><linearGradient id="f" x1="1303.7" y1="418.9" x2="1303.7" y2="336.6" gradientUnits="userSpaceOnUse"><stop offset="0" stop-color="#0ff"/><stop offset="1" stop-color="#cbb2ff"/></linearGradient><linearGradient id="g" x1="923.9" y1="181.4" x2="923.9" y2="58.7" gradientUnits="userSpaceOnUse"><stop offset="0" stop-color="#0ff"/><stop offset="1" stop-color="#cbb2ff"/></linearGradient><linearGradient id="h" x1="164.9" y1="339.2" x2="164.9" y2="427.7" gradientUnits="userSpaceOnUse"><stop offset="0" stop-color="#8f67ff"/><stop offset="1" stop-color="#5ef2ff"/></linearGradient><linearGradient id="i" x1="1317.6" y1="678.4" x2="1317.6" y2="781.8" gradientUnits="userSpaceOnUse"><stop offset="0" stop-color="#8f67ff"/><stop offset="1" stop-color="#5ef2ff"/></linearGradient><linearGradient id="j" x1="241.6" y1="51.9" x2="241.6" y2="164.4" gradientUnits="userSpaceOnUse"><stop offset="0" stop-color="#8f67ff"/><stop offset="1" stop-color="#5ef2ff"/></linearGradient><linearGradient id="k" x1="989.1" y1="671.1" x2="989.1" y2="806.9" gradientUnits="userSpaceOnUse"><stop offset="0" stop-color="#8f67ff"/><stop offset="1" stop-color="#5ef2ff"/></linearGradient><linearGradient id="l" x1="552.8" y1="282.9" x2="552.8" y2="398.5" gradientUnits="userSpaceOnUse"><stop offset="0" stop-color="#8f67ff"/><stop offset="1" stop-color="#5ef2ff"/></linearGradient><linearGradient id="m" x1="530" y1="719" x2="530" y2="847.5" gradientUnits="userSpaceOnUse"><stop offset="0" stop-color="#8f67ff"/><stop offset="1" stop-color="#5ef2ff"/></linearGradient><linearGradient id="n" x1="1294.9" y1="109.1" x2="1294.9" y2="185.1" gradientUnits="userSpaceOnUse"><stop offset="0" stop-color="#8f67ff"/><stop offset="1" stop-color="#5ef2ff"/></linearGradient><linearGradient id="o" x1="75.8" y1="702.1" x2="75.8" y2="818.1" gradientUnits="userSpaceOnUse"><stop offset="0" stop-color="#8f67ff"/><stop offset="1" stop-color="#5ef2ff"/></linearGradient></defs><path d="m1406.1 589.2 44.1-69 37.5 71.9z" style="fill:#101535;stroke:url(#a);stroke-width:12.3"/><path d="m391.2 545.8 9.6-106 93.4 45z" style="fill:#101535;stroke:url(#b);stroke-width:12.3"/><path d="M507.2 136.4c-22.2-1-39.4-19.7-38.4-41.9.9-22.1 19.6-39.3 41.8-38.4 22.2.9 39.4 19.6 38.4 41.8-.9 22.2-19.6 39.4-41.8 38.5z" style="fill:#101535;stroke:url(#c);stroke-width:4.1"/><path d="M1026.8 430.9c-31-1.4-55-29.3-53.7-62.4 1.3-33.2 27.4-58.8 58.4-57.4 31 1.3 55 29.2 53.7 62.4-1.3 33.1-27.4 58.8-58.4 57.4z" style="fill:#101535;stroke:url(#d);stroke-width:4.1"/><path d="m408.5 714.8-76.8-34.2c9.5-21.2 34.3-30.7 55.5-21.3 21.3 9.5 30.8 34.3 21.3 55.5z" style="fill:#101535;stroke:url(#e);stroke-width:12.3"/><path d="m1446.6 396.5-142.2 22.4c-5.4-38.8 22-75.2 61.3-81.4 39.3-6.2 75.5 20.3 80.9 59z" style="fill:#101535;stroke:url(#f);stroke-width:12.3"/><path d="m923.9 181.4 6.6-122.7c34.9.9 61.6 29.1 59.7 63-1.8 33.9-31.5 60.6-66.3 59.7z" style="fill:#101535;stroke:url(#g);stroke-width:12.3"/><g><path d="m227.2 383.9-31.8 43.8-30.5-44.7 31.7-43.8z" style="fill:#101535;stroke:url(#h);stroke-width:3.7"/><path d="m1382.2 711.9-3 69.9-61.6-33.5 3-69.9z" style="fill:#101535;stroke:url(#i);stroke-width:3.7"/><path d="m326.2 92.6-21.7 71.8-62.9-40.7 21.8-71.8z" style="fill:#101535;stroke:url(#j);stroke-width:3.7"/><path d="m1037.3 671.1 87.6 48.2-48.2 87.6-87.6-48.2z" style="fill:#101535;stroke:url(#k);stroke-width:8.1"/><path d="m621.4 282.9 47.4 68.6-68.7 47-47.3-68.6z" style="fill:#101535;stroke:url(#l);stroke-width:8.1"/><path d="m602.9 719 50.3 76.3-72.9 52.2-50.3-76.3z" style="fill:#101535;stroke:url(#m);stroke-width:8.1"/><path d="m1378.7 150.6-24.1 34.5-41.9-3.5-17.8-38 23.9-34.5 41.9 3.5z" style="fill:#101535;stroke:url(#n);stroke-width:3.7"/><path d="M194 750.9 173.1 809l-59.1 9.1-38.2-48.9 20.9-58 59-9.1z" style="fill:#101535;stroke:url(#o);stroke-width:3.7"/></g></svg>