<svg xmlns="http://www.w3.org/2000/svg" width="370.5" height="85.807298">
  <switch xmlns="http://www.w3.org/2000/svg" transform="matrix(1.30208 0 0 1.30208 -12.223963 -23.82812)" fill="#f3f3f5">
    <g xmlns:i="http://ns.adobe.com/AdobeIllustrator/10.0/" i:extraneous="self">
      <path d="M26 72.2c3.4 0 6.3-1.8 8-4.4 1.7 2.6 4.6 4.4 8 4.4s6.3-1.8 8-4.4c1.7 2.6 4.6 4.4 8 4.4s6.3-1.8 8-4.4c1.7 2.6 4.6 4.4 8 4.4 5.2 0 9.5-4.3 9.5-9.5 0-.8-.7-1.5-1.5-1.5s-1.5.7-1.5 1.5c0 3.6-2.9 6.5-6.5 6.5s-6.5-2.9-6.5-6.5c0-.8-.7-1.5-1.5-1.5s-1.5.7-1.5 1.5c0 2.8-1.7 5.1-4.2 6.1-.8-6.2-1.4-10.1-1.8-13.1-.5-3.8-.8-5.9-1.2-9 2.6-3 15-17.4 16-26.7 0-.4-.1-.9-.4-1.2-.3-.3-.8-.5-1.2-.5-.5 0-12.3.5-22.2 10-9.8-9.5-21.7-10-22.2-10-.4 0-.9.2-1.2.5-.3.3-.4.8-.4 1.2 1.1 9.3 13.5 23.8 16 26.7-.4 4.2-.9 7.7-2 14.8-.3 2-.6 4.3-1 6.9-2-1.1-3.4-3.3-3.4-5.7 0-.8-.7-1.5-1.5-1.5s-1.5.7-1.5 1.5c0 3.6-2.9 6.5-6.5 6.5s-6.5-2.9-6.5-6.5c0-.8-.7-1.5-1.5-1.5s-1.5.7-1.5 1.5c.2 5.2 4.5 9.5 9.7 9.5zM42.9 62c1.1-7.6 1.6-11 2-15.7 0-.4-.1-.8-.4-1.1-.1-.2-12.9-14.3-15.4-23.7 3.7.6 12.3 2.6 19.3 9.9.1.1.1.1.2.1.1.1.2.1.3.2.1 0 .2 0 .3.1h.6c.1 0 .2 0 .3-.1.1 0 .2-.1.3-.2.1 0 .2-.1.2-.1 7-7.3 15.5-9.4 19.3-9.9-2.5 9.4-15.2 23.5-15.4 23.7-.3.3-.4.8-.4 1.2.4 3.4.7 5.6 1.3 9.7.4 3 1 6.9 1.8 13.1-3.3-.3-5.8-3.1-5.8-6.5 0-.8-.7-1.5-1.5-1.5s-1.5.7-1.5 1.5c0 3.6-2.9 6.5-6.5 6.5h-.1c.5-2.8.8-5.2 1.1-7.2zM26 84.2c3.4 0 6.3-1.8 8-4.4 1.7 2.6 4.6 4.4 8 4.4s6.3-1.8 8-4.4c1.7 2.6 4.6 4.4 8 4.4s6.3-1.8 8-4.4c1.7 2.6 4.6 4.4 8 4.4 5.2 0 9.5-4.3 9.5-9.5 0-.8-.7-1.5-1.5-1.5s-1.5.7-1.5 1.5c0 3.6-2.9 6.5-6.5 6.5s-6.5-2.9-6.5-6.5c0-.8-.7-1.5-1.5-1.5s-1.5.7-1.5 1.5c0 3.6-2.9 6.5-6.5 6.5s-6.5-2.9-6.5-6.5c0-.8-.7-1.5-1.5-1.5s-1.5.7-1.5 1.5c0 3.6-2.9 6.5-6.5 6.5s-6.5-2.9-6.5-6.5c0-.8-.7-1.5-1.5-1.5s-1.5.7-1.5 1.5c0 3.6-2.9 6.5-6.5 6.5s-6.5-2.9-6.5-6.5c0-.8-.7-1.5-1.5-1.5s-1.5.7-1.5 1.5c0 5.2 4.3 9.5 9.5 9.5z"/>
    </g>
  </switch>
  <path d="m123.696565 59.408402 10.019084-32.061069h6.34542l10.019084 32.06107h.33397l10.353053-39.408398h5.009542v2.003817l-12.0229 44.751909h-6.34542l-10.353054-32.729008h-.33397L126.368321 66.75573h-6.34542L108 22.00382v-2.003816h5.009542l10.353053 39.408397h.33397zm48.759543-39.408397h4.675572v12.69084h13.692749c6.01145 0 10.019084 4.007633 10.019084 9.351145v24.71374h-4.675573V42.04199c0-3.005725-2.337786-5.343512-5.343511-5.343512H177.13168v30.057253h-4.675572V20.000005zm43.75 12.69084V66.75573h-4.675572V32.690845h4.675573zm0-12.69084v8.015267h-4.675572v-8.015267h4.675573zm6.67939 16.698473v-4.007633h5.343512l2.003816-10.019084h2.671756v10.019084h9.685115v4.007633h-9.685115v20.706108c0 3.005725 2.337787 5.343511 5.343512 5.343511h6.34542v4.007634h-6.34542c-6.01145 0-10.019084-4.007634-10.019084-9.351145V36.698478h-5.343512zm54.437024 30.057253h-16.030535c-6.34542 0-10.019084-4.007634-10.019084-9.351145V41.37405c0-5.343512 4.007634-9.351145 10.019084-9.351145h7.347329c6.01145 0 10.019084 4.007633 10.019084 9.351145v10.353054h-22.709924v5.67748c0 3.005726 2.337786 5.343512 5.343511 5.343512h16.030535v4.007634zm-21.374046-25.38168v6.34542h18.034351v-6.34542c0-3.005725-2.337786-5.343512-5.343511-5.343512h-7.347329c-3.005725 0-5.343511 2.337787-5.343511 5.343512zm32.729008 16.030535V20.000005h4.675573v37.40458c0 3.005726 2.337786 5.343512 5.343511 5.343512h1.001909v4.007634h-1.001909c-6.01145 0-10.019084-4.007634-10.019084-9.351145zm22.375955-24.713741V66.75573h-4.675573V32.690845h4.675573zm0-12.69084v8.015267h-4.675573v-8.015267h4.675573zm12.69084 22.041985c0 2.671756 1.335878 4.074427 4.341603 4.675573l9.685115 2.003816c4.675572 1.001909 7.347328 3.673665 7.347328 8.683207 0 5.343511-4.007634 9.351145-10.019084 9.351145h-16.364504v-4.007634h16.364504c3.005725 0 5.343511-2.337786 5.343511-5.343511 0-2.671756-1.335878-4.074428-4.341603-4.675573l-9.685115-2.003817c-4.675572-.935114-7.347328-3.673664-7.347328-8.683206 0-5.410306 4.007634-9.351145 10.019084-9.351145h15.028626V35.3626l-1.335877 1.335878H329.08779c-3.005725 0-5.343511 2.337787-5.343511 5.343512zm25.04771-5.343512v-4.007633h5.343512l2.003816-10.019084h2.671756v10.019084h9.685115v4.007633h-9.685115v20.706108c0 3.005725 2.337787 5.343511 5.343512 5.343511h6.34542v4.007634h-6.34542c-6.01145 0-10.019084-4.007634-10.019084-9.351145V36.698478h-5.343512z" fill="#fff"/>
</svg>
