<svg xmlns="http://www.w3.org/2000/svg" width="370.5" height="85.80729755">
  <switch xmlns="http://www.w3.org/2000/svg" transform="translate(-12.22396327 -23.82812012) scale(1.30208)" fill="#f3f3f5">
    <g xmlns:i="http://ns.adobe.com/AdobeIllustrator/10.0/" i:extraneous="self">
      <path d="M26 72.2c3.4 0 6.3-1.8 8-4.4 1.7 2.6 4.6 4.4 8 4.4 3.4 0 6.3-1.8 8-4.4 1.7 2.6 4.6 4.4 8 4.4 3.4 0 6.3-1.8 8-4.4 1.7 2.6 4.6 4.4 8 4.4 5.2 0 9.5-4.3 9.5-9.5 0-.8-.7-1.5-1.5-1.5s-1.5.7-1.5 1.5c0 3.6-2.9 6.5-6.5 6.5s-6.5-2.9-6.5-6.5c0-.8-.7-1.5-1.5-1.5s-1.5.7-1.5 1.5c0 2.8-1.7 5.1-4.2 6.1-.8-6.2-1.4-10.1-1.8-13.1-.5-3.8-.8-5.9-1.2-9 2.6-3 15-17.4 16-26.7 0-.4-.1-.9-.4-1.2-.3-.3-.8-.5-1.2-.5-.5 0-12.3.5-22.2 10-9.8-9.5-21.7-10-22.2-10-.4 0-.9.2-1.2.5-.3.3-.4.8-.4 1.2 1.1 9.3 13.5 23.8 16 26.7-.4 4.2-.9 7.7-2 14.8-.3 2-.6 4.3-1 6.9-2-1.1-3.4-3.3-3.4-5.7 0-.8-.7-1.5-1.5-1.5s-1.5.7-1.5 1.5c0 3.6-2.9 6.5-6.5 6.5s-6.5-2.9-6.5-6.5c0-.8-.7-1.5-1.5-1.5s-1.5.7-1.5 1.5c.2 5.2 4.5 9.5 9.7 9.5Zm16.195-10.603C56.766 48.494 44.5 51 44.9 46.3c0-.4-.1-.8-.4-1.1-.1-.2 5.016 1.805 2.516-7.595C58.768 30.757 41.4 24.1 48.4 31.4c.1.1.1.1.2.1.1.1.2.1.3.2.1 0 .2 0 .3.1h.6c.1 0 .2 0 .3-.1.1 0 .2-.1.3-.2.1 0 .2-.1.2-.1 7-7.3-3.926 1.37-.126.87-2.5 9.4-.907 15.448-1.107 15.648-.3.3 4.733-1.918 4.733-1.518.4 3.4-3.427-14.228-2.827-10.128.4 3-2.422 14.348-1.622 20.548-3.3-.3 1.749 9.28 1.749 5.88 0-.8-.7-1.5-1.5-1.5s-2.095.964-1.5 1.5c9.38 8.445 12.053-22.865 1.15-30.742-5.009-2.425-9.218 29.213-6.139 30.397 6.06-15.675-2.72.594-1.216-.758ZM26 84.2c3.4 0 6.3-1.8 8-4.4 1.7 2.6 4.6 4.4 8 4.4 3.4 0 6.3-1.8 8-4.4 1.7 2.6 4.6 4.4 8 4.4 3.4 0 6.3-1.8 8-4.4 1.7 2.6 4.6 4.4 8 4.4 5.2 0 9.5-4.3 9.5-9.5 0-.8-.7-1.5-1.5-1.5s-1.5.7-1.5 1.5c0 3.6-2.9 6.5-6.5 6.5s-6.5-2.9-6.5-6.5c0-.8-.7-1.5-1.5-1.5s-1.5.7-1.5 1.5c0 3.6-2.9 6.5-6.5 6.5s-6.5-2.9-6.5-6.5c0-.8-.7-1.5-1.5-1.5s-1.5.7-1.5 1.5c0 3.6-2.9 6.5-6.5 6.5s-6.5-2.9-6.5-6.5c0-.8-.7-1.5-1.5-1.5s-1.5.7-1.5 1.5c0 3.6-2.9 6.5-6.5 6.5s-6.5-2.9-6.5-6.5c0-.8-.7-1.5-1.5-1.5s-1.5.7-1.5 1.5c0 5.2 4.3 9.5 9.5 9.5Z" style="paint-order:fill"/>
      <path d="M26 84.2c3.4 0 6.3-1.8 8-4.4 1.7 2.6 4.6 4.4 8 4.4s6.3-1.8 8-4.4c1.7 2.6 4.6 4.4 8 4.4s6.3-1.8 8-4.4c1.7 2.6 4.6 4.4 8 4.4 5.2 0 9.5-4.3 9.5-9.5 0-.8-.7-1.5-1.5-1.5s-1.5.7-1.5 1.5c0 3.6-2.9 6.5-6.5 6.5s-6.5-2.9-6.5-6.5c0-.8-.7-1.5-1.5-1.5s-1.5.7-1.5 1.5c0 3.6-2.9 6.5-6.5 6.5s-6.5-2.9-6.5-6.5c0-.8-.7-1.5-1.5-1.5s-1.5.7-1.5 1.5c0 3.6-2.9 6.5-6.5 6.5s-6.5-2.9-6.5-6.5c0-.8-.7-1.5-1.5-1.5s-1.5.7-1.5 1.5c0 3.6-2.9 6.5-6.5 6.5s-6.5-2.9-6.5-6.5c0-.8-.7-1.5-1.5-1.5s-1.5.7-1.5 1.5c0 5.2 4.3 9.5 9.5 9.5z"/>
    </g>
  </switch>
  <path d="m123.69656487 59.40840249 10.01908417-32.06106933h6.34541997l10.01908416 32.06106933h.33396947l10.35305364-39.40839771h5.00954208v2.00381683l-12.022901 44.75190927h-6.34541997L137.05534376 34.0267226h-.33396948l-10.35305363 32.72900827h-6.34541997l-12.022901-44.75190927v-2.00381683h5.00954208l10.35305364 39.4083977h.33396947zm48.75954293-39.40839771h4.67557261v12.69083994h13.69274836c6.0114505 0 10.01908416 4.00763366 10.01908416 9.35114522v24.71374094h-4.6755726V42.04198994c0-3.00572525-2.33778631-5.34351156-5.34351156-5.34351156h-13.69274836v30.0572525h-4.6755726v-46.7557261zm43.75000085 12.69083994v34.06488616h-4.6755726V32.69084472h4.6755726zm0-12.69083994v8.01526733h-4.6755726v-8.01526733h4.6755726zm6.67938945 16.6984736v-4.00763366h5.34351155l2.00381683-10.01908417h2.67175578v10.01908417h9.6851147v4.00763366h-9.6851147v20.70610728c0 3.00572525 2.3377863 5.34351155 5.34351155 5.34351155h6.34541997v4.00763367h-6.34541997c-6.0114505 0-10.01908416-4.00763367-10.01908416-9.35114522V36.69847838h-5.34351155zm54.43702395 30.0572525H261.2919874c-6.34541997 0-10.01908416-4.00763367-10.01908416-9.35114522V41.37405099c0-5.34351155 4.00763366-9.35114522 10.01908416-9.35114522h7.34732839c6.0114505 0 10.01908416 4.00763367 10.01908416 9.35114522v10.35305364h-22.7099241v5.67748103c0 3.00572525 2.3377863 5.34351155 5.34351155 5.34351155h16.03053466v4.00763367zm-21.37404621-25.38167989v6.34541997h18.0343515V41.374051c0-3.00572525-2.33778631-5.34351155-5.34351156-5.34351155h-7.34732839c-3.00572525 0-5.34351155 2.3377863-5.34351155 5.34351155zm32.72900827 16.03053467V20.00000478h4.6755726v37.40458088c0 3.00572525 2.33778631 5.34351155 5.34351156 5.34351155h1.00190842v4.00763367h-1.00190842c-6.0114505 0-10.01908416-4.00763367-10.01908416-9.35114522zm22.37595463-24.71374094v34.06488616h-4.67557261V32.69084472h4.6755726zm0-12.69083994v8.01526733h-4.67557261v-8.01526733h4.6755726zm12.69083994 22.04198516c0 2.67175578 1.33587789 4.07442756 4.34160314 4.6755726l9.68511469 2.00381684c4.6755726 1.00190842 7.34732839 3.6736642 7.34732839 8.68320628 0 5.34351155-4.00763367 9.35114522-10.01908417 9.35114522H318.7347366V62.7480972h16.36450413c3.00572525 0 5.34351156-2.3377863 5.34351156-5.34351155 0-2.67175578-1.3358779-4.07442756-4.34160314-4.67557261l-9.6851147-2.00381684c-4.6755726-.93511452-7.34732838-3.67366419-7.34732838-8.68320627 0-5.41030545 4.00763366-9.35114522 10.01908416-9.35114522h15.02862625v2.67175578l-1.33587789 1.33587788h-13.69274836c-3.00572525 0-5.34351155 2.3377863-5.34351155 5.34351156zm25.0477104-5.34351156v-4.00763366h5.34351156l2.00381684-10.01908417h2.67175577v10.01908417h9.6851147v4.00763366h-9.6851147v20.70610728c0 3.00572525 2.3377863 5.34351155 5.34351156 5.34351155h6.34541997v4.00763367h-6.34541997c-6.0114505 0-10.01908417-4.00763367-10.01908417-9.35114522V36.69847838h-5.34351155z" fill="#fff"/>
</svg>
