<?xml version="1.0" encoding="UTF-8"?>
<svg viewBox="0 0 370.5 85.807" xmlns="http://www.w3.org/2000/svg">
<switch transform="translate(-12.224 -23.828) scale(1.3021)" fill="#f3f3f5" xmlns="http://www.w3.org/2000/svg">
<g>
<path d="M26 72.2c3.4 0 6.3-1.8 8-4.4 1.7 2.6 4.6 4.4 8 4.4 3.4 0 6.3-1.8 8-4.4 1.7 2.6 4.6 4.4 8 4.4 3.4 0 6.3-1.8 8-4.4 1.7 2.6 4.6 4.4 8 4.4 5.2 0 9.5-4.3 9.5-9.5 0-.8-.7-1.5-1.5-1.5s-1.5.7-1.5 1.5c0 3.6-2.9 6.5-6.5 6.5s-6.5-2.9-6.5-6.5c0-.8-.7-1.5-1.5-1.5s-1.5.7-1.5 1.5c0 2.8-1.7 5.1-4.2 6.1-.8-6.2-1.4-10.1-1.8-13.1-.5-3.8-.8-5.9-1.2-9 2.6-3 15-17.4 16-26.7 0-.4-.1-.9-.4-1.2-.3-.3-.8-.5-1.2-.5-.5 0-12.3.5-22.2 10-9.8-9.5-21.7-10-22.2-10-.4 0-.9.2-1.2.5-.3.3-.4.8-.4 1.2 1.1 9.3 13.5 23.8 16 26.7-.4 4.2-.9 7.7-2 14.8-.3 2-.6 4.3-1 6.9-2-1.1-3.4-3.3-3.4-5.7 0-.8-.7-1.5-1.5-1.5s-1.5.7-1.5 1.5c0 3.6-2.9 6.5-6.5 6.5s-6.5-2.9-6.5-6.5c0-.8-.7-1.5-1.5-1.5s-1.5.7-1.5 1.5c.2 5.2 4.5 9.5 9.7 9.5Zm16.195-10.603C56.766 48.494 44.5 51 44.9 46.3c0-.4-.1-.8-.4-1.1-.1-.2 5.016 1.805 2.516-7.595C58.768 30.757 41.4 24.1 48.4 31.4c.1.1.1.1.2.1.1.1.2.1.3.2.1 0 .2 0 .3.1h.6c.1 0 .2 0 .3-.1.1 0 .2-.1.3-.2.1 0 .2-.1.2-.1 7-7.3-3.926 1.37-.126.87-2.5 9.4-.907 15.448-1.107 15.648-.3.3 4.733-1.918 4.733-1.518.4 3.4-3.427-14.228-2.827-10.128.4 3-2.422 14.348-1.622 20.548-3.3-.3 1.749 9.28 1.749 5.88 0-.8-.7-1.5-1.5-1.5s-2.095.964-1.5 1.5c9.38 8.445 12.053-22.865 1.15-30.742-5.009-2.425-9.218 29.213-6.139 30.397 6.06-15.675-2.72.594-1.216-.758ZM26 84.2c3.4 0 6.3-1.8 8-4.4 1.7 2.6 4.6 4.4 8 4.4 3.4 0 6.3-1.8 8-4.4 1.7 2.6 4.6 4.4 8 4.4 3.4 0 6.3-1.8 8-4.4 1.7 2.6 4.6 4.4 8 4.4 5.2 0 9.5-4.3 9.5-9.5 0-.8-.7-1.5-1.5-1.5s-1.5.7-1.5 1.5c0 3.6-2.9 6.5-6.5 6.5s-6.5-2.9-6.5-6.5c0-.8-.7-1.5-1.5-1.5s-1.5.7-1.5 1.5c0 3.6-2.9 6.5-6.5 6.5s-6.5-2.9-6.5-6.5c0-.8-.7-1.5-1.5-1.5s-1.5.7-1.5 1.5c0 3.6-2.9 6.5-6.5 6.5s-6.5-2.9-6.5-6.5c0-.8-.7-1.5-1.5-1.5s-1.5.7-1.5 1.5c0 3.6-2.9 6.5-6.5 6.5s-6.5-2.9-6.5-6.5c0-.8-.7-1.5-1.5-1.5s-1.5.7-1.5 1.5c0 5.2 4.3 9.5 9.5 9.5Z" style="paint-order:fill"/>
<path d="M26 84.2c3.4 0 6.3-1.8 8-4.4 1.7 2.6 4.6 4.4 8 4.4s6.3-1.8 8-4.4c1.7 2.6 4.6 4.4 8 4.4s6.3-1.8 8-4.4c1.7 2.6 4.6 4.4 8 4.4 5.2 0 9.5-4.3 9.5-9.5 0-.8-.7-1.5-1.5-1.5s-1.5.7-1.5 1.5c0 3.6-2.9 6.5-6.5 6.5s-6.5-2.9-6.5-6.5c0-.8-.7-1.5-1.5-1.5s-1.5.7-1.5 1.5c0 3.6-2.9 6.5-6.5 6.5s-6.5-2.9-6.5-6.5c0-.8-.7-1.5-1.5-1.5s-1.5.7-1.5 1.5c0 3.6-2.9 6.5-6.5 6.5s-6.5-2.9-6.5-6.5c0-.8-.7-1.5-1.5-1.5s-1.5.7-1.5 1.5c0 3.6-2.9 6.5-6.5 6.5s-6.5-2.9-6.5-6.5c0-.8-.7-1.5-1.5-1.5s-1.5.7-1.5 1.5c0 5.2 4.3 9.5 9.5 9.5z"/>
</g>
</switch>
<path d="m123.7 59.408 10.019-32.061h6.3454l10.019 32.061h0.33397l10.353-39.408h5.0095v2.0038l-12.023 44.752h-6.3454l-10.353-32.729h-0.33397l-10.353 32.729h-6.3454l-12.023-44.752v-2.0038h5.0095l10.353 39.408h0.33397zm48.76-39.408h4.6756v12.691h13.693c6.0115 0 10.019 4.0076 10.019 9.3511v24.714h-4.6756v-24.714c0-3.0057-2.3378-5.3435-5.3435-5.3435h-13.693v30.057h-4.6756v-46.756zm43.75 12.691v34.065h-4.6756v-34.065h4.6756zm0-12.691v8.0153h-4.6756v-8.0153h4.6756zm6.6794 16.698v-4.0076h5.3435l2.0038-10.019h2.6718v10.019h9.6851v4.0076h-9.6851v20.706c0 3.0057 2.3378 5.3435 5.3435 5.3435h6.3454v4.0076h-6.3454c-6.0115 0-10.019-4.0076-10.019-9.3511v-20.706h-5.3435zm54.437 30.057h-16.031c-6.3454 0-10.019-4.0076-10.019-9.3511v-16.031c0-5.3435 4.0076-9.3511 10.019-9.3511h7.3473c6.0115 0 10.019 4.0076 10.019 9.3511v10.353h-22.71v5.6775c0 3.0057 2.3378 5.3435 5.3435 5.3435h16.031v4.0076zm-21.374-25.382v6.3454h18.034v-6.3454c0-3.0057-2.3378-5.3435-5.3435-5.3435h-7.3473c-3.0057 0-5.3435 2.3378-5.3435 5.3435zm32.729 16.031v-37.405h4.6756v37.405c0 3.0057 2.3378 5.3435 5.3435 5.3435h1.0019v4.0076h-1.0019c-6.0115 0-10.019-4.0076-10.019-9.3511zm22.376-24.714v34.065h-4.6756v-34.065h4.6756zm0-12.691v8.0153h-4.6756v-8.0153h4.6756zm12.691 22.042c0 2.6718 1.3359 4.0744 4.3416 4.6756l9.6851 2.0038c4.6756 1.0019 7.3473 3.6737 7.3473 8.6832 0 5.3435-4.0076 9.3511-10.019 9.3511h-16.365v-4.0076h16.365c3.0057 0 5.3435-2.3378 5.3435-5.3435 0-2.6718-1.3359-4.0744-4.3416-4.6756l-9.6851-2.0038c-4.6756-0.93511-7.3473-3.6737-7.3473-8.6832 0-5.4103 4.0076-9.3511 10.019-9.3511h15.029v2.6718l-1.3359 1.3359h-13.693c-3.0057 0-5.3435 2.3378-5.3435 5.3435zm25.048-5.3435v-4.0076h5.3435l2.0038-10.019h2.6718v10.019h9.6851v4.0076h-9.6851v20.706c0 3.0057 2.3378 5.3435 5.3435 5.3435h6.3454v4.0076h-6.3454c-6.0115 0-10.019-4.0076-10.019-9.3511v-20.706h-5.3435z" fill="#fff"/>
</svg>
