<svg viewBox="0 0 87.5 85.80729755" xmlns="http://www.w3.org/2000/svg">
  <switch xmlns="http://www.w3.org/2000/svg" transform="matrix(1.30208 0 0 1.30208 -21.22396327 -23.82812012)" class="css-1s0ncwc" fill="#f3f3f5">
    <g>
      <path d="M26 72.2c3.4 0 6.3-1.8 8-4.4 1.7 2.6 4.6 4.4 8 4.4s6.3-1.8 8-4.4c1.7 2.6 4.6 4.4 8 4.4s6.3-1.8 8-4.4c1.7 2.6 4.6 4.4 8 4.4 5.2 0 9.5-4.3 9.5-9.5 0-.8-.7-1.5-1.5-1.5s-1.5.7-1.5 1.5c0 3.6-2.9 6.5-6.5 6.5s-6.5-2.9-6.5-6.5c0-.8-.7-1.5-1.5-1.5s-1.5.7-1.5 1.5c0 2.8-1.7 5.1-4.2 6.1-.8-6.2-1.4-10.1-1.8-13.1-.5-3.8-.8-5.9-1.2-9 2.6-3 15-17.4 16-26.7 0-.4-.1-.9-.4-1.2-.3-.3-.8-.5-1.2-.5-.5 0-12.3.5-22.2 10-9.8-9.5-21.7-10-22.2-10-.4 0-.9.2-1.2.5-.3.3-.4.8-.4 1.2 1.1 9.3 13.5 23.8 16 26.7-.4 4.2-.9 7.7-2 14.8-.3 2-.6 4.3-1 6.9-2-1.1-3.4-3.3-3.4-5.7 0-.8-.7-1.5-1.5-1.5s-1.5.7-1.5 1.5c0 3.6-2.9 6.5-6.5 6.5s-6.5-2.9-6.5-6.5c0-.8-.7-1.5-1.5-1.5s-1.5.7-1.5 1.5c.2 5.2 4.5 9.5 9.7 9.5zM42.9 62c1.1-7.6 1.6-11 2-15.7 0-.4-.1-.8-.4-1.1-.1-.2-12.9-14.3-15.4-23.7 3.7.6 12.3 2.6 19.3 9.9.1.1.1.1.2.1.1.1.2.1.3.2.1 0 .2 0 .3.1h.6c.1 0 .2 0 .3-.1.1 0 .2-.1.3-.2.1 0 .2-.1.2-.1 7-7.3 15.5-9.4 19.3-9.9-2.5 9.4-15.2 23.5-15.4 23.7-.3.3-.4.8-.4 1.2.4 3.4.7 5.6 1.3 9.7.4 3 1 6.9 1.8 13.1-3.3-.3-5.8-3.1-5.8-6.5 0-.8-.7-1.5-1.5-1.5s-1.5.7-1.5 1.5c0 3.6-2.9 6.5-6.5 6.5h-.1c.5-2.8.8-5.2 1.1-7.2zM26 84.2c3.4 0 6.3-1.8 8-4.4 1.7 2.6 4.6 4.4 8 4.4s6.3-1.8 8-4.4c1.7 2.6 4.6 4.4 8 4.4s6.3-1.8 8-4.4c1.7 2.6 4.6 4.4 8 4.4 5.2 0 9.5-4.3 9.5-9.5 0-.8-.7-1.5-1.5-1.5s-1.5.7-1.5 1.5c0 3.6-2.9 6.5-6.5 6.5s-6.5-2.9-6.5-6.5c0-.8-.7-1.5-1.5-1.5s-1.5.7-1.5 1.5c0 3.6-2.9 6.5-6.5 6.5s-6.5-2.9-6.5-6.5c0-.8-.7-1.5-1.5-1.5s-1.5.7-1.5 1.5c0 3.6-2.9 6.5-6.5 6.5s-6.5-2.9-6.5-6.5c0-.8-.7-1.5-1.5-1.5s-1.5.7-1.5 1.5c0 3.6-2.9 6.5-6.5 6.5s-6.5-2.9-6.5-6.5c0-.8-.7-1.5-1.5-1.5s-1.5.7-1.5 1.5c0 5.2 4.3 9.5 9.5 9.5z"/>
    </g>
  </switch>
</svg>
