<svg xmlns="http://www.w3.org/2000/svg" viewBox="0 0 87.5 85.80729755">
  <switch xmlns="http://www.w3.org/2000/svg" transform="translate(-21.22396327 -23.82812012) scale(1.30208)" fill="#f3f3f5">
    <g>
      <path d="M26 72.2c3.4 0 6.3-1.8 8-4.4 1.7 2.6 4.6 4.4 8 4.4 3.4 0 6.3-1.8 8-4.4 1.7 2.6 4.6 4.4 8 4.4 3.4 0 6.3-1.8 8-4.4 1.7 2.6 4.6 4.4 8 4.4 5.2 0 9.5-4.3 9.5-9.5 0-.8-.7-1.5-1.5-1.5s-1.5.7-1.5 1.5c0 3.6-2.9 6.5-6.5 6.5s-6.5-2.9-6.5-6.5c0-.8-.7-1.5-1.5-1.5s-1.5.7-1.5 1.5c0 2.8-1.7 5.1-4.2 6.1-.8-6.2-1.4-10.1-1.8-13.1-.5-3.8-.8-5.9-1.2-9 2.6-3 15-17.4 16-26.7 0-.4-.1-.9-.4-1.2-.3-.3-.8-.5-1.2-.5-.5 0-12.3.5-22.2 10-9.8-9.5-21.7-10-22.2-10-.4 0-.9.2-1.2.5-.3.3-.4.8-.4 1.2 1.1 9.3 13.5 23.8 16 26.7-.4 4.2-.9 7.7-2 14.8-.3 2-.6 4.3-1 6.9-2-1.1-3.4-3.3-3.4-5.7 0-.8-.7-1.5-1.5-1.5s-1.5.7-1.5 1.5c0 3.6-2.9 6.5-6.5 6.5s-6.5-2.9-6.5-6.5c0-.8-.7-1.5-1.5-1.5s-1.5.7-1.5 1.5c.2 5.2 4.5 9.5 9.7 9.5Zm16.195-10.603C56.766 48.494 44.5 51 44.9 46.3c0-.4-.1-.8-.4-1.1-.1-.2 5.016 1.805 2.516-7.595C58.768 30.757 41.4 24.1 48.4 31.4c.1.1.1.1.2.1.1.1.2.1.3.2.1 0 .2 0 .3.1h.6c.1 0 .2 0 .3-.1.1 0 .2-.1.3-.2.1 0 .2-.1.2-.1 7-7.3-3.926 1.37-.126.87-2.5 9.4-.907 15.448-1.107 15.648-.3.3 4.733-1.918 4.733-1.518.4 3.4-3.427-14.228-2.827-10.128.4 3-2.422 14.348-1.622 20.548-3.3-.3 1.749 9.28 1.749 5.88 0-.8-.7-1.5-1.5-1.5s-2.095.964-1.5 1.5c9.38 8.445 12.053-22.865 1.15-30.742-5.009-2.425-9.218 29.213-6.139 30.397 6.06-15.675-2.72.594-1.216-.758ZM26 84.2c3.4 0 6.3-1.8 8-4.4 1.7 2.6 4.6 4.4 8 4.4 3.4 0 6.3-1.8 8-4.4 1.7 2.6 4.6 4.4 8 4.4 3.4 0 6.3-1.8 8-4.4 1.7 2.6 4.6 4.4 8 4.4 5.2 0 9.5-4.3 9.5-9.5 0-.8-.7-1.5-1.5-1.5s-1.5.7-1.5 1.5c0 3.6-2.9 6.5-6.5 6.5s-6.5-2.9-6.5-6.5c0-.8-.7-1.5-1.5-1.5s-1.5.7-1.5 1.5c0 3.6-2.9 6.5-6.5 6.5s-6.5-2.9-6.5-6.5c0-.8-.7-1.5-1.5-1.5s-1.5.7-1.5 1.5c0 3.6-2.9 6.5-6.5 6.5s-6.5-2.9-6.5-6.5c0-.8-.7-1.5-1.5-1.5s-1.5.7-1.5 1.5c0 3.6-2.9 6.5-6.5 6.5s-6.5-2.9-6.5-6.5c0-.8-.7-1.5-1.5-1.5s-1.5.7-1.5 1.5c0 5.2 4.3 9.5 9.5 9.5Z" style="paint-order:fill"/>
      <path d="M26 84.2c3.4 0 6.3-1.8 8-4.4 1.7 2.6 4.6 4.4 8 4.4s6.3-1.8 8-4.4c1.7 2.6 4.6 4.4 8 4.4s6.3-1.8 8-4.4c1.7 2.6 4.6 4.4 8 4.4 5.2 0 9.5-4.3 9.5-9.5 0-.8-.7-1.5-1.5-1.5s-1.5.7-1.5 1.5c0 3.6-2.9 6.5-6.5 6.5s-6.5-2.9-6.5-6.5c0-.8-.7-1.5-1.5-1.5s-1.5.7-1.5 1.5c0 3.6-2.9 6.5-6.5 6.5s-6.5-2.9-6.5-6.5c0-.8-.7-1.5-1.5-1.5s-1.5.7-1.5 1.5c0 3.6-2.9 6.5-6.5 6.5s-6.5-2.9-6.5-6.5c0-.8-.7-1.5-1.5-1.5s-1.5.7-1.5 1.5c0 3.6-2.9 6.5-6.5 6.5s-6.5-2.9-6.5-6.5c0-.8-.7-1.5-1.5-1.5s-1.5.7-1.5 1.5c0 5.2 4.3 9.5 9.5 9.5z"/>
    </g>
  </switch>
</svg>
